<svg width="82" height="83" viewBox="0 0 82 83" fill="none" xmlns="http://www.w3.org/2000/svg">
<mask id="mask0_60_110" style="mask-type:alpha" maskUnits="userSpaceOnUse" x="0" y="0" width="82" height="83">
<rect width="82" height="83" fill="#17CBEA"/>
</mask>
<g mask="url(#mask0_60_110)">
<mask id="mask1_60_110" style="mask-type:alpha" maskUnits="userSpaceOnUse" x="-12" y="-10" width="101" height="101">
<path d="M38.5 -10C66.3904 -10 89 12.6096 89 40.5C89 68.3904 66.3904 91 38.5 91C10.6096 91 -12 68.3904 -12 40.5C-12 12.6096 10.6096 -10 38.5 -10Z" fill="#D9D9D9"/>
</mask>
<g mask="url(#mask1_60_110)">
<path d="M41.3997 1.23555C41.9154 0.973235 42.6453 0.66274 43.0236 0.544967C43.4019 0.427193 43.8319 0.380797 43.9765 0.439684C44.1228 0.500355 44.2013 0.669878 44.1514 0.817988C44.0996 0.966097 43.8534 1.64776 43.6035 2.33477C43.1592 3.5482 43.1307 3.58389 42.5632 3.55355C42.242 3.53749 41.6674 3.33763 41.2855 3.10744C40.9037 2.87903 40.5236 2.55069 40.4379 2.37938C40.354 2.20808 40.3237 1.9868 40.3737 1.88866C40.4219 1.79051 40.884 1.49608 41.3997 1.23555Z" fill="#DAA531"/>
<path d="M30.2362 11.6585C29.9721 11.0946 29.8097 10.5932 29.8757 10.5433C29.94 10.4933 30.081 10.4522 30.188 10.4522C30.2933 10.4505 30.7822 10.5896 31.273 10.7592C31.819 10.9501 32.5346 11.4176 33.1199 11.9672C33.7248 12.5347 34.278 13.2877 34.6313 14.0229C35.0721 14.9384 35.2095 15.4969 35.3772 18.1682L34.1281 18.0344C33.3483 17.9505 32.7112 17.7721 32.4329 17.5615C32.1866 17.3759 31.8262 17.2296 31.6299 17.2367C31.4336 17.2439 31.0838 17.1065 30.8536 16.9298C30.4486 16.6229 30.4414 16.5747 30.652 15.6289C30.7733 15.0883 30.8358 14.2067 30.793 13.666C30.7501 13.1236 30.5003 12.226 30.2362 11.6585Z" fill="#DAA531"/>
<path d="M36.3176 12.1171C36.2873 11.853 36.3872 11.7031 36.6281 11.6478C36.8226 11.6032 38.2288 11.5568 42.515 11.5247L43.4072 12.3777C43.9569 12.9041 44.3833 13.5037 44.519 13.9391C44.6403 14.3281 44.7438 15.1293 44.7474 15.7182C44.7527 16.4819 44.8419 16.8798 45.0632 17.1065C45.231 17.2813 45.5307 17.4205 45.727 17.417C45.9233 17.4116 46.1642 17.4919 46.2624 17.5936C46.3605 17.6971 46.9547 17.8399 48.7231 18.038L48.6089 19.9116C48.5447 20.943 48.4483 21.8246 48.3948 21.8745C48.3413 21.9245 48.1414 21.8638 47.9487 21.7407C47.7274 21.5979 46.9208 21.5176 43.8534 21.5176V20.9823C43.8534 20.6879 43.7677 20.0258 43.6642 19.5101C43.5589 18.9944 43.318 18.1522 43.1289 17.6364C42.9379 17.1207 42.7024 16.6996 42.6042 16.6996C42.5061 16.6996 42.3526 16.8406 42.2634 17.0119C42.1296 17.2706 41.9868 17.2992 41.4158 17.1725C41.0393 17.0886 40.288 16.9477 39.7491 16.8602C39.2102 16.771 38.3894 16.6389 37.0885 16.4319L36.9743 15.5397C36.9101 15.049 36.7477 14.1657 36.6121 13.5768C36.4746 12.988 36.3426 12.3313 36.3176 12.1171Z" fill="#DAA531"/>
<path d="M50.5932 20.0009C50.7931 19.6083 51.0982 18.7446 51.2713 18.0826C51.4462 17.4205 51.6532 16.8781 51.7353 16.8781C51.8174 16.8781 52.1279 17.2599 52.4259 17.7257C52.7239 18.1914 53.0968 19.014 53.2521 19.5547C53.4091 20.0954 53.5304 21.0983 53.5215 21.7853C53.5108 22.5169 53.3449 23.5519 53.12 24.2835C52.9077 24.9706 52.4669 25.9342 52.1404 26.4249C51.8138 26.9156 51.1428 27.7186 50.6486 28.2093C50.1543 28.7001 49.6885 29.0355 49.6118 28.9534C49.5368 28.8714 49.4887 28.0684 49.5065 27.169C49.5226 26.2696 49.5904 24.9706 49.6564 24.2835C49.7563 23.2503 49.726 22.988 49.4833 22.7668C49.3227 22.6204 49.1942 22.3992 49.1996 22.276C49.2031 22.1529 49.4369 21.7514 49.7189 21.3838C49.999 21.0162 50.3934 20.3934 50.5932 20.0009Z" fill="#DAA531"/>
<path d="M36.9761 5.89479C37.4294 4.98115 38.0896 4.0461 38.8266 3.27164C39.4547 2.60961 40.04 2.06714 40.1274 2.06714C40.2131 2.06714 40.3541 2.20811 40.4379 2.37942C40.5236 2.55073 40.8841 2.87193 41.2409 3.0932C41.5978 3.31447 42.151 3.53931 43.0504 3.69634V5.42369C43.0504 6.903 43.1146 7.28131 43.4911 8.04505C43.7338 8.53578 44.5761 9.63322 45.3648 10.4844C46.1535 11.3356 47.0565 12.4598 47.3723 12.9826C47.69 13.5055 48.1111 14.5761 48.3127 15.3613C48.5126 16.1465 48.675 17.069 48.675 18.038L47.5579 17.9095C46.9441 17.8399 46.3605 17.6972 46.2624 17.5937C46.1642 17.4919 45.9233 17.4063 45.7271 17.4063C45.5308 17.4045 45.2274 17.2653 45.0525 17.0958C44.8152 16.8674 44.7349 16.5141 44.7367 15.7182C44.7385 15.1293 44.6403 14.3281 44.519 13.9391C44.3851 13.5073 43.9515 12.8952 42.515 11.5033L36.1463 11.614L36.207 9.46369C36.2677 7.37053 36.2891 7.27417 36.9761 5.89479Z" fill="#DAA635"/>
<path d="M36.5211 18.841C36.7049 18.4002 36.9208 17.6864 37.0011 17.2582L37.1474 16.4802L37.9576 16.589C38.4037 16.6497 39.2102 16.7728 39.7491 16.8638C40.288 16.953 41.075 17.094 42.2617 17.3242L42.151 18.1272C42.0903 18.568 41.9155 19.3317 41.762 19.8224C41.6085 20.3132 41.2873 21.1162 41.0482 21.6069C40.7502 22.2154 39.858 23.2379 38.2431 24.8189C35.9304 27.0869 35.8662 27.1708 35.3737 28.5663C35.0971 29.3514 34.783 30.0527 34.6777 30.1241C34.5724 30.1972 34.2851 30.2579 34.0389 30.2597C33.7944 30.2615 33.2716 30.0937 32.879 29.8885C32.4864 29.6815 31.7816 29.1391 31.3123 28.6822C30.7858 28.1701 30.1916 27.3064 29.7598 26.4249C29.3726 25.6398 28.9711 24.5958 28.864 24.1051C28.7587 23.6144 28.723 22.7311 28.7855 22.1422C28.8497 21.5534 29.0228 20.6308 29.1727 20.0901C29.3208 19.5494 29.6474 18.5858 29.8972 17.9488C30.1452 17.3117 30.3772 16.7603 30.4111 16.7264C30.4468 16.6907 30.6538 16.7924 30.8733 16.9513C31.0928 17.1083 31.4336 17.235 31.6299 17.2296C31.8262 17.2261 32.208 17.3867 32.4775 17.5865C32.747 17.7846 33.1485 17.9488 33.3697 17.9505C33.591 17.9523 34.0817 18.0112 35.1506 18.2164L35.0418 19.2425C34.9739 19.8617 35.0025 20.3042 35.1096 20.3578C35.2077 20.4077 35.4897 20.2668 35.7377 20.0455C35.9839 19.8242 36.3373 19.2817 36.5211 18.841Z" fill="#DAA635"/>
<path d="M43.2288 24.9956C43.3805 24.3086 43.5929 23.245 43.7017 22.6312L43.898 21.5159L45.7931 21.5212C46.9887 21.5248 47.8024 21.6087 47.9951 21.7443C48.1628 21.8639 48.3038 22.0637 48.3074 22.1851C48.3109 22.3082 48.3948 22.4081 48.493 22.4081C48.5911 22.4081 48.7107 22.3278 48.7606 22.2297C48.8088 22.1315 48.9301 22.0512 49.0283 22.0512C49.1264 22.0512 49.2032 22.1529 49.1978 22.2743C49.1942 22.3974 49.3227 22.6187 49.4833 22.765C49.726 22.9881 49.7546 23.2468 49.6546 24.2818C49.5886 24.9688 49.5208 26.3678 49.4744 29.2497L48.4037 29.7547C47.8149 30.0313 47.0511 30.2579 46.7085 30.2579C46.3445 30.2579 45.6932 30.0349 45.1471 29.7226C44.4458 29.3246 44.0764 28.9535 43.6821 28.2522C43.393 27.7383 43.1093 27.0745 43.0539 26.78C42.9986 26.4856 43.0771 25.6826 43.2288 24.9956Z" fill="#DAA635"/>
<path d="M48.9551 44.0018C48.525 43.586 48.5126 43.5342 48.7874 43.2434C48.948 43.0721 49.2692 42.9311 49.5011 42.9311C49.742 42.9311 49.9972 43.0828 50.0989 43.288C50.1971 43.4843 50.4576 43.6948 50.6789 43.7555C50.9002 43.8162 51.2231 43.9964 51.398 44.157C51.5729 44.3176 51.7103 44.5692 51.7032 44.7155C51.696 44.8619 51.7924 45.0742 51.9209 45.1849C52.0476 45.2955 52.2117 45.6381 52.2849 45.9432C52.358 46.2502 52.6917 46.8016 53.0272 47.1692C53.3609 47.5368 53.6821 48.0382 53.7374 48.2844C53.7945 48.5289 53.9658 48.8519 54.1193 48.9982C54.2728 49.1446 54.3941 49.4461 54.3888 49.6674C54.3852 49.8887 54.4691 50.2491 54.5743 50.4704C54.7278 50.788 54.6957 51.0022 54.4262 51.4965C54.2371 51.8409 53.9694 52.146 53.8302 52.1763C53.6607 52.2138 53.4127 51.7784 53.0665 50.838C52.7863 50.0707 52.2724 48.8822 51.928 48.1952C51.5818 47.5082 50.877 46.384 50.3595 45.697C49.842 45.01 49.2103 44.248 48.9551 44.0018Z" fill="#6D3D28"/>
<path d="M23.3321 59.8834L23.325 58.6414L23.3179 57.3994L38.3073 57.378L38.3215 59.8834H23.3321Z" fill="#6D3D28"/>
<path d="M42.0225 58.9501C41.9476 58.6289 41.8887 58.1453 41.8905 57.8741L41.8958 57.3798L53.9355 57.4744L54.0247 59.8834H48.5821C45.0721 59.8834 43.1396 59.8191 43.1396 59.7049C43.1396 59.6068 42.9183 59.5283 42.6488 59.5301C42.2402 59.5336 42.1349 59.4373 42.0225 58.9501Z" fill="#6D3D28"/>
<path d="M32.9682 40.8129C33.7034 40.5149 34.9489 40.1545 35.7341 40.0117C36.5192 39.869 37.9236 39.7458 38.8569 39.7387C39.7901 39.7316 41.0732 39.8351 41.712 39.9689C42.3508 40.1027 43.434 40.4346 44.121 40.7059C44.808 40.9753 45.8091 41.4875 46.3462 41.8408C46.8833 42.1959 47.797 42.9275 48.3751 43.4664C48.9551 44.0053 49.8491 45.01 50.3648 45.697C50.8787 46.384 51.5907 47.5278 51.9476 48.2398C52.3045 48.9518 52.8327 50.2366 53.12 51.0949C53.4073 51.9533 53.7339 53.2987 53.8463 54.0839C53.9587 54.8691 54.0247 55.913 53.9355 57.2959L39.0353 57.3851C30.8393 57.4333 23.1912 57.4547 19.9417 57.3851L20.0541 56.8944C20.1166 56.625 20.4467 55.5596 20.7875 54.53C21.1301 53.5004 21.7279 51.9747 22.1169 51.1396C22.5059 50.3062 23.2501 49.0214 23.7693 48.2844C24.2886 47.5492 25.1451 46.4696 25.6733 45.8879C26.2015 45.3062 27.2347 44.3533 27.9717 43.7698C28.7069 43.1863 29.8329 42.4047 30.4699 42.0317C31.107 41.6605 32.2312 41.1109 32.9682 40.8129Z" fill="#DAA531"/>
<path d="M15.0755 73.5344L15.6483 72.6993L16.2211 71.8642L16.9242 72.4317C17.4024 72.8171 17.5684 73.0562 17.4435 73.1776C17.3418 73.2757 17.2597 73.7379 17.2615 74.2036C17.2632 74.7639 17.1901 75.0512 17.042 75.053C16.9188 75.053 16.4263 74.7122 15.0755 73.5344Z" fill="#512011"/>
<path d="M6.20143 52.924V52.2102V51.4965H7.80744V52.924H6.20143Z" fill="#673513"/>
<path d="M68.3004 68.0919L68.9214 67.1283C69.5352 66.1754 69.5477 66.1664 70.0366 66.4127C70.3079 66.5501 70.7522 66.6625 71.0217 66.6625C71.4107 66.6643 71.491 66.7285 71.4071 66.9766C71.3482 67.1479 70.986 67.751 69.9064 69.341L68.3004 68.0919Z" fill="#673513"/>
<path d="M87.2637 103.335C86.8836 102.662 86.8765 102.587 87.137 102.041C87.3869 101.52 87.4921 101.461 88.9429 101.461L88.9268 102.626C88.9161 103.453 88.8323 103.843 88.6431 103.966C88.495 104.061 88.2166 104.12 88.0221 104.095C87.8223 104.068 87.4904 103.736 87.2637 103.335Z" fill="#673513"/>
<path d="M14.053 130.012V128.942V127.871H16.1944V130.012H14.053Z" fill="#673513"/>
<path d="M-8.28297 130.489C-8.29903 129.964 -8.24193 129.479 -8.15627 129.409C-8.07062 129.34 -7.60309 129.306 -7.11772 129.336C-6.28617 129.384 -6.22193 129.423 -6.02028 130.012C-5.90251 130.355 -5.7544 130.817 -5.69016 131.038C-5.57952 131.429 -5.61164 131.44 -8.25263 131.44L-8.28297 130.489Z" fill="#673513"/>
<path d="M20.8339 17.4099C21.471 17.0887 22.3953 16.6818 22.886 16.5052C23.3768 16.3285 23.9799 16.225 24.2244 16.2785C24.4706 16.3303 24.774 16.4659 24.9007 16.5801C25.0292 16.6943 25.1309 17.0691 25.1309 17.4135C25.1291 17.7828 24.9988 18.1576 24.8097 18.3289C24.6348 18.4895 23.4481 19.1533 22.1723 19.8046C20.8964 20.4577 19.8328 20.9895 19.8079 20.9877C19.7829 20.9841 19.7615 20.8824 19.7615 20.7593C19.7597 20.6362 19.3939 20.174 18.134 18.9302L18.9031 18.4609C19.3278 18.204 20.1969 17.7311 20.8339 17.4099Z" fill="#6B3918"/>
<path d="M57.4973 18.5733C57.5526 18.2789 57.5972 17.6972 57.5954 17.2796C57.5936 16.6747 57.6561 16.5212 57.9059 16.5248C58.0772 16.5284 58.9801 16.8942 59.9134 17.3403C60.8467 17.7846 62.3117 18.5858 63.17 19.1194C64.0284 19.6529 64.7314 20.1704 64.7314 20.2686C64.7314 20.3667 64.4905 20.6076 64.1961 20.8039C63.9017 21.0002 63.6643 21.2607 63.6679 21.3839C63.6733 21.507 63.5323 21.7871 63.0362 22.4099L61.7728 21.5623C61.0769 21.0966 59.8081 20.3524 58.9534 19.9117C57.4455 19.1337 57.4009 19.0926 57.4973 18.5733Z" fill="#6B3918"/>
<path d="M9.77031 39.1963C9.54012 39.0571 9.53655 38.9589 9.74355 38.486C9.94876 38.0185 10.0523 37.9543 10.4573 38.0471C10.7179 38.1077 11.0373 38.2469 11.1675 38.3576C11.3656 38.5253 11.3656 38.627 11.1675 38.9607C11.0212 39.2105 10.7607 39.3622 10.4841 39.3604C10.2396 39.3586 9.91842 39.2837 9.77031 39.1963Z" fill="#6B3918"/>
<path d="M73.4521 54.0465C73.3896 53.9697 73.2825 53.5236 73.2165 53.0579L73.0934 52.2103H74.6887L74.6619 53.1471C74.6369 54.05 74.6155 54.0857 74.0998 54.1357C73.8054 54.1642 73.5145 54.125 73.4521 54.0465Z" fill="#6B3918"/>
<path d="M13.507 62.8063C13.4909 62.4691 13.6319 62.0658 13.8674 61.7803C14.1993 61.3788 14.3938 61.311 16.1943 61.311V63.0062C16.1943 64.6711 16.1872 64.6996 15.7928 64.614C15.5716 64.5676 15.2504 64.5266 15.0791 64.5248C14.9077 64.5248 14.4884 64.2625 14.1494 63.943C13.7247 63.5433 13.5248 63.19 13.507 62.8063Z" fill="#6B3918"/>
<path d="M69.8171 66.311C69.6976 66.1843 69.7475 65.9184 69.9742 65.5009C70.1919 65.0958 70.4399 64.8781 70.6879 64.8763C70.8967 64.8745 71.2929 65.094 71.5695 65.367C72.0263 65.8131 72.0513 65.9006 71.8371 66.2771C71.6301 66.6447 71.5052 66.6822 70.7986 66.5983C70.3578 66.5448 69.9153 66.4163 69.8171 66.311Z" fill="#6B3918"/>
<path d="M64.9991 71.5537C65.7843 70.8489 66.8193 69.7818 67.2993 69.1822C67.7793 68.5826 68.2218 68.0937 68.2807 68.0937C68.3414 68.0955 68.7108 68.3667 69.1033 68.695C69.7939 69.2732 69.8082 69.3053 69.5334 69.7175C69.3782 69.9531 68.5341 70.8988 67.6597 71.8196C66.7853 72.7422 65.4684 73.9556 64.7314 74.5159C63.9962 75.0762 62.831 75.881 62.144 76.3039C61.457 76.7269 60.3131 77.3407 59.6011 77.6673C58.8891 77.9956 58.2682 78.2633 58.2182 78.2633C58.17 78.2633 58.129 78.1223 58.129 77.951C58.1272 77.7797 58.0058 77.3978 57.8577 77.1034C57.7114 76.8089 57.6115 76.5573 57.6365 76.5448C57.6614 76.5324 58.0844 76.3218 58.5751 76.0755C59.0658 75.8311 59.9509 75.3189 60.5415 74.9388C61.134 74.5587 62.0565 73.9306 62.5937 73.5416C63.1326 73.1544 64.214 72.2586 64.9991 71.5537Z" fill="#6B3918"/>
<path d="M17.2293 74.2964C17.2597 73.7825 17.3239 73.2989 17.3721 73.224C17.422 73.149 17.497 73.0884 17.5416 73.0884C17.5862 73.0884 18.4053 73.6183 19.3617 74.2661C20.3182 74.9139 21.6441 75.7169 22.3061 76.0506C23.1079 76.455 23.5088 76.7614 23.5088 76.9695C23.507 77.1409 23.4071 77.5441 23.2858 77.8636C23.1644 78.1848 23.0038 78.4453 22.9306 78.4435C22.8575 78.4435 22.0134 78.0474 21.057 77.5673C20.1005 77.0855 18.8353 76.3646 17.1758 75.2333L17.2293 74.2964Z" fill="#6B3918"/>
<path d="M35.6449 81.2968V80.2262C35.6449 79.3268 35.6948 79.1555 35.9571 79.1537C36.1285 79.1519 36.6906 79.2733 37.2063 79.4214C37.722 79.5695 38.384 79.8907 38.6784 80.1369C39.0389 80.4367 39.212 80.7437 39.2102 81.0738C39.2084 81.3432 39.0282 81.7465 38.8087 81.9714C38.5892 82.1944 38.2698 82.3746 38.0985 82.3729C37.9272 82.3693 37.3044 82.1266 35.6449 81.2968Z" fill="#6B3918"/>
<path d="M64.0105 93.3419L64.0141 92.2266L64.0177 91.1113H65.0883C66.1108 91.1113 66.1554 91.1292 66.0555 91.5128C65.9984 91.7341 65.8967 92.3372 65.8325 92.8547C65.7379 93.5935 65.6558 93.7737 65.4452 93.6881C65.2989 93.6274 64.9152 93.5257 64.0105 93.3419Z" fill="#6B3918"/>
<path d="M86.9622 98.6542C87.2138 98.2884 87.5153 97.9279 87.6313 97.8548C87.7455 97.7798 88.0203 97.7174 88.2416 97.7174C88.4664 97.7156 88.7216 97.8708 88.8215 98.0707C88.9197 98.267 89 99.111 89 101.461H88.2862C87.6117 101.461 87.5724 101.431 87.5724 100.926C87.5724 100.569 87.394 100.212 86.5018 99.3198L86.9622 98.6542Z" fill="#6B3918"/>
<path d="M-3.07774 116.272C-3.07774 115.76 -3.04027 115.733 -2.23013 115.676C-1.76439 115.644 -0.820412 115.649 -0.133397 115.69C0.553617 115.731 1.23528 115.803 1.38339 115.849C1.59752 115.917 1.62607 116.119 1.52971 116.861C1.46369 117.371 1.30309 117.891 1.17282 118.014C0.989023 118.189 0.799871 118.194 0.312716 118.033C-0.0316839 117.919 -0.674087 117.873 -1.11485 117.928C-1.55739 117.985 -2.07845 118.08 -2.27474 118.14C-2.57096 118.233 -2.6691 118.132 -2.85469 117.53C-2.97781 117.132 -3.07774 116.567 -3.07774 116.272Z" fill="#6B3918"/>
<path d="M16.1943 130.012V128.942V127.871H17.6219V130.012H16.1943Z" fill="#6B3918"/>
<path d="M-7.6281 132.868C-8.23838 132.868 -8.25266 132.85 -8.25266 132.154V131.44H-6.82509C-6.03993 131.44 -5.39575 131.501 -5.39218 131.574C-5.39039 131.647 -5.57062 131.879 -5.79368 132.088C-6.01852 132.295 -6.38076 132.557 -6.60204 132.668C-6.82331 132.777 -7.28548 132.868 -7.6281 132.868Z" fill="#6B3918"/>
<path d="M-3.79331 135.321C-3.79509 134.904 -3.73621 134.297 -3.66483 133.974C-3.56668 133.535 -3.46319 133.414 -3.26154 133.503C-3.11165 133.567 -2.46746 133.663 -1.82863 133.717C-1.16303 133.772 -0.40285 133.726 -0.0441751 133.608C0.464394 133.442 0.630348 133.453 0.848051 133.667C0.994376 133.811 1.21565 133.931 1.33878 133.933C1.4619 133.936 1.68496 134.118 1.83664 134.34C1.98832 134.561 2.08825 134.939 2.05969 135.182C2.01865 135.525 1.84913 135.671 1.29416 135.839C0.901585 135.956 -0.40285 136.058 -3.79152 136.08L-3.79331 135.321Z" fill="#6B3918"/>
<path fill-rule="evenodd" clip-rule="evenodd" d="M57.5562 16.3428L57.5294 17.5758C57.5151 18.2557 57.4437 18.8571 57.3706 18.9142C57.2974 18.9731 56.9958 18.8981 56.7014 18.7518C56.407 18.6055 56.0858 18.3235 55.9876 18.1272C55.8895 17.9309 55.8092 17.6097 55.8092 17.4134C55.8092 17.2172 55.9056 16.896 56.0233 16.6997C56.175 16.4463 56.4284 16.3428 57.5562 16.3428V16.3428ZM18.068 19.0266C18.1662 19.0248 18.5891 19.3639 19.0066 19.7796C19.426 20.1954 19.7704 20.6576 19.774 20.8039C19.7757 20.9502 19.4331 21.3053 19.012 21.5908C18.5909 21.8764 17.4042 22.7686 16.3728 23.5734C15.3432 24.3782 13.6158 25.9592 12.5362 27.0852C11.4566 28.2094 10.1183 29.7672 9.56154 30.5434C9.00479 31.3215 8.18573 32.6384 7.7414 33.4735C7.29885 34.3086 6.85452 35.3508 6.75816 35.7933C6.62968 36.3661 6.65467 37.4653 6.8456 39.6299C6.99193 41.2983 7.1668 43.0186 7.2364 43.4522C7.30421 43.8858 7.44161 44.2695 7.53975 44.3069C7.6379 44.3426 7.90735 43.7056 8.13933 42.8936C8.37131 42.0799 8.75318 40.9129 9.41343 39.1838L10.0826 39.2962C10.4502 39.3586 10.7714 39.4193 10.7964 39.43C10.8196 39.4425 10.7 39.8297 10.5287 40.2901C10.3574 40.7523 10.2753 41.1931 10.3467 41.2716C10.4199 41.3501 10.7 41.1806 10.9713 40.8968C11.2443 40.6113 11.8278 40.1456 12.2686 39.8636C12.7111 39.5799 13.5944 39.1873 14.2315 38.991C14.9863 38.7591 15.7661 38.652 16.462 38.6859C17.4221 38.7323 17.538 38.7787 17.5773 39.1392C17.6023 39.3604 17.3418 40.1224 17.0009 40.8344C16.6583 41.5464 15.9909 42.5707 15.5163 43.1096C15.0416 43.6485 14.2975 44.3051 13.8621 44.5657C13.4267 44.8262 12.4292 45.2563 11.644 45.5186C10.8588 45.7827 9.93984 46.2109 9.6008 46.4715C9.26353 46.732 8.84419 47.2673 8.66931 47.6599C8.49622 48.0525 8.23034 49.0554 8.08044 49.8905C7.93055 50.7256 7.80742 51.4269 7.80742 51.4519C7.80742 51.4769 7.44696 51.4965 6.20142 51.4965L6.43518 48.0168L5.48585 46.1431C4.96301 45.1135 4.42945 44.0482 4.29741 43.7787C4.16714 43.5093 3.97977 43.288 3.88163 43.288C3.78348 43.288 3.70318 43.3076 3.70318 43.3326C3.7014 43.3576 3.5408 44.4604 3.34629 45.7862C3.1161 47.3476 2.9894 49.1374 2.98762 50.8719C2.98762 52.6742 3.0697 53.8395 3.24279 54.4408C3.38376 54.9316 3.8156 55.7346 4.20283 56.2253C4.59005 56.716 5.35023 57.5993 5.89092 58.1882C6.43339 58.7771 6.92769 59.2178 6.99014 59.1696C7.0526 59.1215 6.94553 58.2364 6.75103 57.2067C6.55831 56.1771 6.33525 54.7906 6.11219 52.9205H7.7182L7.85203 54.1714C7.9359 54.9476 8.0626 55.4062 8.18751 55.3777C8.29815 55.3527 8.48551 55.0119 8.60329 54.6193C8.72285 54.2267 9.02442 53.504 9.27246 53.0133C9.5205 52.5225 10.1254 51.6785 10.6162 51.1396C11.1069 50.6007 11.8795 49.9779 12.3346 49.7566C12.7896 49.5354 13.341 49.3748 13.5623 49.3998C13.9299 49.4408 13.9602 49.5247 13.921 50.4258C13.896 50.9647 13.7086 52.0497 13.5052 52.8348C13.3 53.62 12.9431 54.6639 12.7129 55.1546C12.4809 55.6453 11.7564 56.7695 11.1015 57.6528C10.4466 58.5362 9.84884 59.3802 9.7721 59.5265C9.69537 59.6728 9.58117 60.1154 9.51693 60.508C9.44377 60.9648 9.51693 61.6714 9.72036 62.4709C9.89523 63.1579 10.4002 64.3499 10.841 65.1208C11.2835 65.8917 12.1383 67.1765 12.7432 67.9759C13.3464 68.7753 14.3706 69.9727 16.1943 71.8392L15.8553 72.4192C15.6697 72.7386 15.3771 73.1187 15.2058 73.2668C14.9202 73.5131 14.7704 73.4024 13.3803 71.9285C12.5487 71.0452 11.3817 69.6408 10.7892 68.8057C10.1968 67.9706 9.36168 66.6465 8.9352 65.8613C8.23212 64.5694 8.06081 64.382 7.13468 63.8984C6.57258 63.604 5.91233 63.2203 5.66608 63.0455C5.42161 62.8688 5.1593 62.7296 5.08613 62.7332C5.01297 62.735 4.95408 62.8795 4.95408 63.0508C4.95587 63.2221 5.40555 64.3267 5.95159 65.5044C6.49942 66.6822 7.55938 68.5701 8.30885 69.6979C9.05654 70.8275 10.2468 72.4335 10.9516 73.2668C11.6565 74.1001 12.7843 75.2725 13.4552 75.8685C14.128 76.4645 15.1594 77.3139 15.7482 77.7529C16.3371 78.1937 17.2204 78.7826 17.7111 79.0627C18.2019 79.3411 19.1262 79.7694 19.7633 80.012C20.6234 80.3386 21.2675 80.4528 22.2615 80.4528C23.1091 80.4528 23.9549 80.3279 24.5688 80.1155C25.1005 79.9317 25.5627 79.6998 25.5948 79.6016C25.627 79.5035 25.0845 79.2215 24.3886 78.9771C23.1983 78.5577 23.1287 78.5042 23.2376 78.0848C23.3018 77.8386 23.4089 77.4157 23.4767 77.1426C23.5624 76.7947 23.6801 76.6787 23.8675 76.7518C24.0156 76.8125 24.4724 76.9553 24.8846 77.0713C25.2951 77.1873 25.6966 77.2229 25.7769 77.1498C25.8554 77.0766 25.4985 76.5752 24.9828 76.0345C24.4671 75.4938 23.8461 74.6087 23.5998 74.0698C23.3554 73.5309 23.1948 72.9278 23.2429 72.7315C23.3125 72.4549 23.4821 72.3746 24.0013 72.3728C24.3689 72.3728 25.1933 72.5495 25.8304 72.7654C26.4692 72.9831 27.4328 73.4577 27.9717 73.82C28.5517 74.209 29.4332 75.0905 30.1256 75.9703C30.7698 76.7893 31.6138 77.6833 31.9992 77.9546C32.4507 78.274 33.2252 78.5595 35.6502 79.0663L35.6484 80.1816C35.6449 81.1648 35.6074 81.2844 35.3326 81.1916C35.1613 81.1345 34.3779 80.9221 33.5928 80.7223C32.4721 80.435 31.869 80.3814 30.7822 80.4706C29.7919 80.5509 28.855 80.7918 27.481 81.3165C26.4264 81.7215 24.8811 82.239 24.0459 82.4674C23.2126 82.6976 22.1277 82.8886 21.6369 82.8939C21.1462 82.8993 20.2629 82.7797 19.674 82.6263C19.0852 82.4728 17.961 82.0231 17.1758 81.6287C16.3906 81.2326 15.1058 80.4403 14.3207 79.8675C13.5355 79.2947 12.331 78.3115 11.644 77.6833C10.957 77.0552 9.75961 75.7829 8.98338 74.8585C8.20714 73.9342 7.03654 72.3746 6.38164 71.3931C5.72675 70.4117 4.90947 69.1269 4.56507 68.538C4.22067 67.9491 3.63537 66.7857 3.26421 65.9506C2.89126 65.1154 2.31309 63.6308 1.97583 62.6493C1.64036 61.6679 1.15498 59.8602 0.899808 58.6343C0.475108 56.5947 0.434065 56.0219 0.418005 51.9426C0.407298 48.9786 0.482245 46.9729 0.642846 45.9647C0.77668 45.1296 1.11216 43.4843 1.38875 42.3066C1.66534 41.1288 2.24528 39.2016 2.67712 38.0239C3.11074 36.8461 3.92624 34.9582 4.49012 33.8304C5.05401 32.7026 6.02832 31.0163 6.65467 30.0831C7.28279 29.1498 8.62649 27.4242 9.64184 26.2465C10.6572 25.0687 12.2471 23.4556 13.1733 22.6597C14.0976 21.8657 15.5395 20.7236 16.3728 20.1222C17.2079 19.5209 17.9699 19.0284 18.068 19.0266V19.0266ZM65.0705 20.447C65.2275 20.5255 66.275 21.3803 67.3974 22.3475C68.5216 23.3146 70.1437 24.9081 71.002 25.8896C71.8603 26.871 72.9899 28.2754 73.5127 29.0124C74.0356 29.7476 74.794 30.9128 75.1973 31.5998C75.6006 32.2869 76.2108 33.4111 76.5534 34.0981C76.8978 34.7851 77.4778 36.1502 77.8436 37.1316C78.2112 38.1131 78.6573 39.3979 78.8375 39.9868C79.016 40.5756 79.3247 41.6998 79.5228 42.485C79.7191 43.2702 80.0242 44.7566 80.2009 45.7862C80.4418 47.2067 80.5185 48.6092 80.5132 51.5857C80.5096 54.5211 80.4346 55.872 80.2134 56.9391C80.0528 57.7242 79.7869 58.9287 79.6263 59.6157C79.4657 60.3028 79.148 61.427 78.9214 62.114C78.6948 62.801 78.254 64.0055 77.9435 64.7907C77.6313 65.5758 76.9318 67.0623 76.3875 68.0919C75.845 69.1215 74.9135 70.6883 74.3211 71.5716C73.7269 72.4549 72.7526 73.7789 72.1566 74.5159C71.5606 75.2511 70.3882 76.5199 69.553 77.3336C68.7161 78.1455 67.351 79.2983 66.5159 79.8943C65.6826 80.4885 64.4781 81.2397 63.8392 81.5627C63.2022 81.8839 62.1172 82.3193 61.4302 82.5299C60.7432 82.7387 59.7403 82.9064 59.1996 82.9029C58.6607 82.8975 57.8577 82.8118 57.4152 82.7101C56.9744 82.6102 55.6896 82.1623 54.5601 81.7162C53.4323 81.2701 51.9458 80.7847 51.2588 80.6402C50.4077 80.4582 49.6118 80.4118 48.7606 80.4938C48.0736 80.5616 46.8691 80.8168 46.0839 81.0631C45.2988 81.3093 44.3762 81.6573 44.0318 81.8357C43.6892 82.0142 43.2074 82.2033 42.9611 82.2569C42.6506 82.3247 42.3919 82.2337 42.1082 81.9589C41.8851 81.7412 41.7049 81.4235 41.7067 81.2522C41.7102 81.0809 41.853 80.733 42.0243 80.4813C42.1992 80.2244 42.7292 79.8782 43.2288 79.6944C43.7195 79.5142 44.8437 79.2322 45.727 79.0663C46.6103 78.9003 47.731 78.5916 48.2181 78.381C48.9551 78.0598 49.2995 77.7279 50.2863 76.3896C50.9376 75.5063 51.7442 74.5498 52.0779 74.2661C52.4134 73.9806 53.1682 73.5202 53.7571 73.2436C54.3459 72.967 55.3702 72.6583 56.0322 72.5584C56.6943 72.4567 57.3171 72.4156 57.4152 72.4638C57.5133 72.512 57.5936 72.8136 57.5919 73.133C57.5919 73.4524 57.3581 74.1144 57.0726 74.6051C56.7889 75.0959 56.2268 75.8186 55.8235 76.2112C55.4202 76.6037 55.0918 77.0249 55.0918 77.148C55.0936 77.2711 55.1757 77.371 55.2739 77.371C55.372 77.371 55.9145 77.2104 56.4784 77.0159C57.2974 76.7304 57.549 76.7037 57.7275 76.8821C57.8506 77.0035 58.0023 77.3853 58.1754 78.3525L56.7246 78.8432C55.927 79.1127 55.2739 79.4142 55.2739 79.5124C55.2739 79.6105 55.6147 79.8211 56.0322 79.9817C56.4552 80.1441 57.5419 80.3083 60.1811 80.4332L61.6979 79.6855C62.533 79.2751 63.6572 78.638 64.1961 78.2704C64.7368 77.901 65.9413 76.9553 66.8728 76.1683C67.8061 75.3814 69.2336 73.9449 70.0473 72.9759C70.8593 72.007 71.9299 70.6133 72.426 69.8763C72.9221 69.1412 73.875 67.4138 74.5442 66.0398C75.2151 64.6657 75.8111 63.3613 75.8682 63.14C75.936 62.8831 75.8932 62.735 75.7504 62.7314C75.6273 62.726 75.4078 62.8545 75.2597 63.0133C75.1134 63.1739 74.5102 63.5719 73.9214 63.8966C73.1558 64.3196 72.7615 64.6711 72.5384 65.1297C72.3671 65.483 72.1655 65.7739 72.0923 65.7775C72.0192 65.7792 71.7586 65.5758 71.5124 65.326C71.2679 65.0762 70.9253 64.8727 70.754 64.8745C70.5309 64.8781 70.4738 64.7907 70.5559 64.5676C70.6184 64.3963 70.8664 63.7325 71.1055 63.0954C71.3446 62.4584 71.5516 61.534 71.5659 61.0433C71.5838 60.3545 71.4785 59.9691 71.0984 59.3481C70.8271 58.9055 70.2847 58.1436 69.8903 57.6528C69.4959 57.1621 68.8196 56.0379 68.386 55.1546C67.9542 54.2713 67.4688 52.9865 67.3082 52.2995C67.1494 51.6125 67.0459 50.6774 67.0798 50.2206C67.1137 49.7638 67.2029 49.323 67.2814 49.2392C67.3582 49.1553 67.8596 49.3087 68.3967 49.5782C68.9321 49.8477 69.6994 50.3705 70.1027 50.7381C70.5042 51.1057 71.1002 51.8088 71.4249 52.2995C71.7497 52.7902 72.1637 53.6949 72.3439 54.3106C72.5242 54.9262 72.7329 55.4276 72.8061 55.4259C72.8793 55.4241 72.9399 55.1011 72.9399 54.7085C72.9399 54.0607 72.9774 54.0036 73.3414 54.0822C73.5627 54.1286 73.9232 54.1696 74.1444 54.1714C74.5263 54.1732 74.5406 54.2249 74.4442 55.1992C74.3889 55.7631 74.1855 56.8677 73.9963 57.6528C73.8054 58.438 73.6501 59.1411 73.6519 59.2142C73.6519 59.2874 73.734 59.3481 73.8322 59.3481C73.9303 59.3481 74.6584 58.6057 75.4507 57.6975C76.243 56.7892 77.0852 55.7256 77.3208 55.3331C77.7044 54.696 77.7615 54.3338 77.865 51.9426C77.9525 49.944 77.9061 48.6556 77.6866 46.8569C77.5242 45.5311 77.3279 44.207 77.2494 43.9126C77.1727 43.6181 77.0192 43.3772 76.9103 43.3772C76.8015 43.3772 76.2447 44.3016 74.6352 47.4815L74.7244 52.2103H73.1184L73.0184 50.8273C72.9649 50.0671 72.7954 49.0018 72.6437 48.4629C72.4456 47.7598 72.1566 47.2763 71.6266 46.757C71.0663 46.2056 70.481 45.8862 69.1926 45.4258C68.1969 45.0689 67.1298 44.5371 66.6051 44.1356C66.1144 43.7591 65.5041 43.1934 65.2489 42.8794C64.9938 42.5635 64.4905 41.7445 64.1301 41.0574C63.7696 40.3704 63.4752 39.5871 63.4788 39.3176C63.4806 39.0428 63.6001 38.7876 63.75 38.7377C63.8981 38.6895 64.4602 38.6484 64.9991 38.6484C65.5916 38.6484 66.4231 38.8144 67.0958 39.066C67.7097 39.2962 68.452 39.6317 68.7465 39.8119C69.0409 39.9921 69.5816 40.4257 69.9474 40.7773C70.3132 41.127 70.6755 41.3537 70.7504 41.2787C70.8254 41.2056 70.729 40.804 70.5345 40.3865C70.34 39.9707 69.8992 39.1552 69.553 38.5753C69.2069 37.9935 68.6358 37.2316 68.2825 36.88C67.8757 36.475 66.962 35.945 65.7896 35.4364C64.7707 34.9939 63.4538 34.3193 62.8631 33.9357C62.2707 33.552 61.4266 32.8686 60.9841 32.4153C60.5433 31.9621 59.7653 30.911 59.2585 30.0795C58.7518 29.2479 58.2896 28.345 58.2325 28.0755C58.1754 27.8061 58.2021 27.4849 58.2931 27.3618C58.4074 27.2065 58.9873 27.1476 60.2114 27.1655C61.4409 27.1851 62.26 27.2975 62.947 27.5402C63.4877 27.7329 64.1693 28.0131 64.4638 28.163C64.7582 28.3129 65.4202 28.7661 65.936 29.1712C66.4517 29.5745 67.2368 30.406 67.6794 31.0199C68.1237 31.6337 68.6019 32.4564 68.7411 32.849C68.8803 33.2415 69.1158 34.0053 69.2657 34.5442C69.4139 35.0831 69.8261 36.0074 70.183 36.5963C70.5398 37.1852 71.0555 38.1095 71.3286 38.6484C71.6016 39.1873 72.1762 40.6542 72.6062 41.9068C73.0345 43.1595 73.4467 44.1838 73.5199 44.182C73.593 44.182 73.6912 43.9197 73.7358 43.6003C73.7822 43.2809 73.9125 42.137 74.0267 41.0574C74.1409 39.9778 74.2426 38.2826 74.2551 37.2905C74.2783 35.5256 74.264 35.4596 73.5895 34.1677C73.2112 33.4432 72.6134 32.4064 72.2618 31.8675C71.9103 31.3286 71.0823 30.2044 70.4203 29.3693C69.76 28.5342 68.6305 27.2833 67.9113 26.5855C67.194 25.8896 66.043 24.8457 65.356 24.2657C64.669 23.6876 63.8838 23.0523 63.1183 22.4991L63.4841 21.7854C63.6858 21.3928 64.0605 20.8985 64.3175 20.6879C64.6291 20.4321 64.8802 20.3518 65.0705 20.447V20.447ZM21.9938 27.0049C22.2883 27.0513 22.6005 27.1423 22.688 27.2047C22.7772 27.2672 22.8093 27.5973 22.7611 27.9417C22.713 28.2861 22.3239 29.1694 21.8957 29.9046C21.4674 30.6416 20.552 31.8104 19.8614 32.5046C19.1565 33.2112 18.093 34.0463 17.4435 34.4014C16.8064 34.7512 15.568 35.349 14.6954 35.7273C13.6426 36.1859 12.9199 36.6284 12.5541 37.0442C12.2489 37.3886 11.8688 37.8704 11.7065 38.1149C11.4638 38.4771 11.3656 38.5182 11.1711 38.3326C11.0391 38.2095 10.7892 38.1077 10.6179 38.1095C10.4466 38.1113 10.2664 38.0328 10.2164 37.9346C10.1683 37.8365 10.4431 37.1745 10.8303 36.4625C11.2175 35.7505 11.7368 34.5263 11.9848 33.7412C12.2329 32.956 12.6665 31.9532 12.9502 31.5106C13.2322 31.0681 13.9388 30.2579 14.517 29.7083C15.0969 29.1587 16.0516 28.4646 16.6405 28.1666C17.2293 27.8686 18.0734 27.5224 18.5141 27.401C18.9567 27.2779 19.7989 27.1191 20.3878 27.0477C20.9767 26.9745 21.6994 26.9567 21.9938 27.0049V27.0049ZM40.5521 31.3322C41.4783 31.3215 41.7406 31.3982 42.5007 31.905C42.9825 32.228 43.525 32.7722 43.7053 33.1166C43.8855 33.461 44.0336 34.0428 44.0318 34.4104C44.0318 34.778 43.9212 35.3008 43.7873 35.5702C43.6517 35.8397 43.2377 36.3019 42.8683 36.5963C42.2545 37.0852 42.1778 37.1049 41.9975 36.8265C41.853 36.5999 41.5461 36.5196 40.8198 36.516C40.2809 36.5124 39.6385 36.6213 39.3922 36.7569C39.0014 36.9746 38.8783 36.9675 38.4108 36.698C38.1163 36.5303 37.6542 36.1359 37.3847 35.8254C37.051 35.4382 36.894 35.0581 36.894 34.6334C36.894 34.289 37.0046 33.7483 37.1402 33.4289C37.2741 33.1095 37.6167 32.6384 37.8986 32.3796C38.1806 32.1209 38.6517 31.7836 38.9461 31.6284C39.2477 31.4696 39.9472 31.3411 40.5521 31.3322V31.3322ZM43.7195 37.5831C43.9408 37.5867 44.7242 37.6991 45.4594 37.8312C46.1963 37.9632 47.4829 38.2933 49.8456 39.0624L49.7956 40.2384C49.767 40.8843 49.7438 41.7552 49.7438 42.1727C49.7421 42.7741 49.6778 42.9329 49.4298 42.9365C49.2585 42.9383 48.9765 43.0578 48.8052 43.2041C48.5233 43.4415 48.3877 43.3826 47.3777 42.5903C46.7638 42.1067 45.7806 41.4714 45.1917 41.1788C44.6028 40.8843 43.8962 40.5756 43.6214 40.4936C43.3216 40.4025 43.1628 40.2544 43.2199 40.1206C43.2734 39.9975 43.318 39.3747 43.318 38.7377C43.318 37.6527 43.343 37.5778 43.7195 37.5831V37.5831ZM35.6895 37.7705C36.1713 37.7562 36.1802 37.774 36.1802 38.8269C36.1802 39.8512 36.1588 39.9029 35.6895 40.001C35.42 40.0564 34.6777 40.2544 34.0389 40.44C33.4018 40.6256 32.2366 41.1092 31.4514 41.5125C30.6663 41.9158 29.5028 42.6206 28.864 43.0792C28.2269 43.536 27.2026 44.373 25.4735 45.9647L24.5813 45.0725C24.0906 44.5817 23.689 44.0999 23.689 44.0018C23.689 43.9036 24.2708 43.3112 24.9828 42.6866C25.6948 42.0603 26.719 41.268 27.258 40.9254C27.7986 40.5828 28.7212 40.0617 29.3101 39.7655C29.8989 39.4693 30.9839 39.0107 31.7191 38.743C32.4561 38.4771 33.5392 38.1524 34.1281 38.0221C34.717 37.8918 35.42 37.7776 35.6895 37.7705V37.7705ZM60.0883 47.3922C60.1882 47.3922 60.6718 48.115 61.1625 48.9983C61.6533 49.8816 62.3296 51.2663 62.6668 52.0764C63.0023 52.8866 63.4431 54.3712 63.6483 55.3777C63.8517 56.3841 64.0177 57.6493 64.0177 58.1882C64.0177 59.1197 63.9909 59.1786 63.4823 59.3481C63.1879 59.4462 62.947 59.6068 62.947 59.705C62.947 59.8031 62.806 59.8852 62.6347 59.887C62.4634 59.8888 62.2207 59.7871 62.0958 59.6639C61.9406 59.5087 61.871 58.8217 61.871 57.4744C61.871 56.2824 61.7675 55.1261 61.6051 54.5301C61.457 53.9912 61.2196 53.4273 61.0751 53.2809C60.9324 53.1346 60.811 52.6921 60.8074 52.2995C60.8021 51.7695 60.6736 51.4554 60.3114 51.0825C59.892 50.6507 59.8135 50.4008 59.7528 49.298C59.7154 48.5932 59.7332 47.8758 59.7939 47.7045C59.8545 47.5332 59.9866 47.3922 60.0883 47.3922ZM19.7936 48.8037L20.2683 49.1535C20.5306 49.3444 20.9856 49.7513 21.28 50.0564C21.5745 50.3616 21.9153 50.6096 22.0384 50.6078C22.1616 50.606 22.2294 50.7042 22.1919 50.8273C22.1544 50.9504 21.9403 51.4929 21.3157 53.0133L19.6919 52.9508C18.7979 52.9169 18.0502 52.8759 18.0288 52.8616C18.0074 52.8473 18.1483 52.4137 18.341 51.898C18.5338 51.3823 18.9406 50.4758 19.2422 49.8833L19.7936 48.8037ZM16.1961 61.3092H21.1926V62.6475C21.1926 63.6789 21.2783 64.1411 21.5673 64.655C21.7743 65.0244 22.0349 65.4295 22.1473 65.5562C22.2597 65.6829 22.5327 65.7828 22.754 65.7792C22.9967 65.7739 23.2608 65.947 23.4232 66.2164C23.5695 66.4627 23.6908 66.9445 23.6908 67.9117L22.9324 67.7975C22.5149 67.735 21.9724 67.5851 21.7279 67.4656C21.4817 67.3442 20.9196 66.8231 20.4788 66.3057C20.0363 65.79 19.4545 65.2564 19.1851 65.1226C18.9139 64.9887 18.4321 64.8781 18.1144 64.8763C17.795 64.8763 17.2311 64.8156 16.189 64.6104L16.1961 61.3092ZM33.6838 61.3092H53.6696L53.675 61.7107C53.6786 61.932 53.5376 62.2442 53.3627 62.4031C53.1878 62.5637 52.6828 62.7457 52.2421 62.8081C51.7995 62.8706 51.1785 63.0812 50.8591 63.2757C50.4558 63.5219 49.9669 63.629 49.2531 63.6272C48.6892 63.6254 48.0807 63.7253 47.9041 63.8503C47.6632 64.018 47.5954 64.2589 47.6364 64.7889C47.6846 65.4045 47.7774 65.5437 48.3163 65.806C48.6589 65.9738 49.1211 66.1147 49.3423 66.1183C49.5832 66.1236 49.8848 66.3413 50.1007 66.6625C50.297 66.957 50.4576 67.3585 50.4576 67.5548C50.4576 67.9081 50.3577 67.9117 34.1299 67.801L34.0853 66.9641C34.0442 66.1843 34.0871 66.088 34.7491 65.5473C35.2862 65.1065 35.4557 64.8388 35.4575 64.432C35.4575 64.1375 35.3201 63.7539 35.1506 63.579C34.9811 63.4041 34.7027 63.2632 34.5314 63.2667C34.3583 63.2703 34.0995 63.033 33.9514 62.7368C33.8033 62.4423 33.6838 62.0016 33.6838 61.7553V61.3092ZM57.5954 61.3092L62.1904 61.3128C64.7172 61.3145 66.8728 61.3734 66.9816 61.4466C67.0887 61.518 67.2707 61.7589 67.3831 61.9784C67.4956 62.1996 67.5901 62.5208 67.5937 62.6921C67.5973 62.8652 67.4171 63.24 67.1922 63.5273C66.9692 63.8146 66.5248 64.1554 66.2054 64.2857C65.886 64.4159 64.8421 64.6086 63.8856 64.7157C62.9292 64.8228 61.8852 65.0226 61.5658 65.1618C61.2464 65.301 60.7254 65.7685 60.4059 66.2004C60.0865 66.6322 59.6047 67.114 59.3353 67.271C58.9373 67.5012 58.791 67.5119 58.568 67.3317C58.3556 67.1604 58.2949 66.7428 58.3003 65.5027C58.3056 64.2018 58.2396 63.7878 57.9523 63.3167C57.7507 62.9919 57.5954 62.4245 57.5954 62.023V61.3092ZM22.5755 90.5974C22.7968 90.5849 23.5998 90.6599 24.36 90.7651C25.1202 90.8704 26.264 91.1345 26.9028 91.3522C27.5399 91.5699 28.6248 92.116 29.3119 92.5657C30.1309 93.101 30.859 93.7737 31.4282 94.5214C31.9047 95.1478 32.3972 95.8615 32.5239 96.106C32.6506 96.3523 32.9272 97.075 33.1395 97.712C33.3519 98.3509 33.5696 99.5554 33.6213 100.389C33.6891 101.429 33.6302 102.327 33.4357 103.244C33.2805 103.981 32.8558 105.185 32.4918 105.921C32.0296 106.859 31.4675 107.619 30.6163 108.463C29.7794 109.293 28.9996 109.862 28.1074 110.291C27.3954 110.633 26.2319 111.035 25.5199 111.183C24.8079 111.331 23.4838 111.452 22.5755 111.454C21.6673 111.454 20.4431 111.331 19.8543 111.181C19.2654 111.029 18.1804 110.621 17.4452 110.271C16.4531 109.802 15.7946 109.316 14.9024 108.403C14.0584 107.539 13.5177 106.782 13.0948 105.876C12.7628 105.166 12.4077 104.222 12.3042 103.779C12.2007 103.338 12.0651 102.414 12.0027 101.727C11.9259 100.892 11.9813 100.005 12.1668 99.0504C12.3185 98.2652 12.7182 97.0607 13.0519 96.3737C13.3874 95.6867 14.0584 94.6838 14.5437 94.1431C15.0291 93.6042 15.941 92.8262 16.5691 92.4176C17.199 92.0071 18.234 91.4968 18.8728 91.2844C19.5099 91.0721 20.5145 90.8365 21.1034 90.7598C21.6922 90.6831 22.3543 90.6099 22.5755 90.5974ZM-7.662 91.1131C-6.07205 91.1149 -4.68731 91.1738 -4.58382 91.247C-4.4821 91.3183 -3.71836 92.2123 -2.88859 93.2348C-2.05881 94.2555 -0.297561 96.4344 1.02829 98.0761C2.35235 99.7177 3.9191 101.666 4.50797 102.409C5.09684 103.149 5.67857 103.761 5.8017 103.767C5.97657 103.777 6.00334 102.798 5.92839 99.1842C5.87486 96.6574 5.79634 94.3483 5.75352 94.0539C5.71248 93.7595 5.49477 93.3437 5.27172 93.1313C5.04687 92.9172 4.64359 92.6959 4.37414 92.6406C3.98156 92.5585 3.88341 92.439 3.8852 92.0464C3.88698 91.7769 3.94765 91.4557 4.01903 91.3326C4.11896 91.1649 4.96479 91.122 10.7536 91.1988V91.7234C10.7536 92.1552 10.6126 92.3283 9.95055 92.7156C9.508 92.9743 9.04762 93.3812 8.92627 93.6203C8.7621 93.945 8.705 96.1149 8.70322 102.307C8.70322 106.847 8.66039 110.681 8.61221 110.828C8.5444 111.031 8.22855 111.097 7.31848 111.099C6.18714 111.103 6.08007 111.067 5.56615 110.519C5.26458 110.198 4.13859 108.852 3.06256 107.527C1.98654 106.202 0.0593301 103.833 -1.21834 102.262C-2.49779 100.692 -3.92 98.9058 -4.38039 98.292C-4.84078 97.6799 -5.2976 97.1767 -5.39574 97.1767C-5.51173 97.1767 -5.55813 99.0985 -5.52957 102.675C-5.4921 107.421 -5.44571 108.233 -5.19231 108.608C-5.01922 108.867 -4.54813 109.152 -4.03242 109.311C-3.1848 109.573 -3.16518 109.595 -3.16518 111.006L-10.5707 111.095L-10.7562 110.605C-10.8579 110.335 -10.899 110.014 -10.8455 109.891C-10.7919 109.77 -10.3083 109.468 -9.76765 109.222C-9.22874 108.977 -8.68627 108.595 -8.56314 108.374C-8.40076 108.081 -8.32403 106.313 -8.2812 101.816C-8.24194 97.8405 -8.29191 95.2816 -8.4186 94.5892C-8.52745 94.0004 -8.73802 93.399 -8.88791 93.2509C-9.03781 93.1046 -9.49106 92.8637 -9.89613 92.7156C-10.5171 92.4889 -10.6349 92.3676 -10.6617 91.9126C-10.6777 91.6181 -10.6617 91.3183 -10.6224 91.2434C-10.5849 91.1702 -9.25194 91.1113 -7.662 91.1131V91.1131ZM41.7638 91.1524C47.7649 91.213 48.0932 91.2345 49.0301 91.6128C49.569 91.8305 50.322 92.3087 50.7021 92.6745C51.0822 93.0403 51.5408 93.6613 51.7246 94.0539C51.9191 94.4732 52.0565 95.1745 52.0583 95.7491C52.0601 96.2898 51.9815 97.0321 51.8834 97.3997C51.787 97.7691 51.4355 98.3705 51.1054 98.7381C50.7735 99.1075 50.2114 99.5679 49.8545 99.7641C49.4976 99.9604 49.2049 100.162 49.2031 100.21C49.2014 100.26 49.5404 100.421 49.9562 100.567C50.372 100.715 50.9965 101.042 51.3427 101.295C51.6907 101.549 52.1903 102.15 52.4526 102.634C52.7167 103.117 53.0201 103.913 53.1272 104.404C53.2753 105.075 53.2681 105.562 53.1022 106.367C52.979 106.97 52.6454 107.785 52.3384 108.233C52.0404 108.67 51.4337 109.288 50.993 109.607C50.5504 109.927 49.7081 110.369 49.1193 110.592C48.095 110.978 47.7756 110.999 35.5574 111.122V110.31C35.5574 109.573 35.6074 109.479 36.0928 109.286C36.3872 109.17 36.8101 108.908 37.44 108.33L37.4347 101.147C37.4329 96.7877 37.3615 93.7898 37.2527 93.5186C37.1438 93.2491 36.7387 92.9136 36.2302 92.6709C35.7055 92.4229 35.3612 92.1338 35.3255 91.9126C35.2916 91.7163 35.313 91.4504 35.3719 91.3219C35.4593 91.1345 36.7138 91.1024 41.7638 91.1524V91.1524ZM64.0195 91.1095V93.2509L62.8149 93.2955C61.9941 93.3258 61.6104 93.4115 61.6104 93.5632C61.6104 93.6863 61.6301 95.3119 61.6997 100.567L62.6365 100.564C63.1522 100.56 63.9338 100.476 64.3763 100.376C64.8171 100.276 65.4809 99.9961 65.8485 99.7552C66.2411 99.5 66.664 99.004 66.871 98.5596C67.0744 98.1224 67.2225 97.4229 67.2225 96.909C67.2225 96.4183 67.0762 95.6956 66.896 95.303C66.7158 94.9104 66.3928 94.4286 66.1804 94.2323C65.9021 93.9772 65.795 93.6738 65.8003 93.1617C65.8057 92.7691 65.9092 92.1463 66.0305 91.7769C66.1786 91.3219 66.3357 91.1292 66.5177 91.1809C66.664 91.2238 67.0655 91.3023 67.4099 91.3576C67.7525 91.4129 68.4752 91.6502 69.0159 91.8858C69.578 92.132 70.3061 92.6477 70.7219 93.0956C71.1198 93.5239 71.5891 94.2377 71.7622 94.6785C71.996 95.2691 72.062 95.8366 72.0138 96.8198C71.9674 97.7959 71.83 98.3937 71.5088 99.0272C71.2661 99.5036 70.7272 100.207 70.3096 100.589C69.8921 100.969 69.2907 101.39 68.9713 101.522C68.6519 101.656 68.2504 101.816 68.0791 101.879C67.7918 101.986 67.7989 102.036 68.1683 102.491C68.3896 102.762 69.305 104.147 70.2044 105.569C71.1037 106.989 72.0281 108.326 72.2565 108.537C72.4867 108.749 73.0756 109.04 73.5663 109.182C74.2961 109.397 74.4853 109.538 74.6102 109.957C74.7315 110.373 74.6887 110.54 74.38 110.828C74.0445 111.145 73.7643 111.185 71.9103 111.174C70.2169 111.165 69.6851 111.097 69.1194 110.817C68.734 110.626 68.0612 110.069 67.6258 109.579C67.128 109.02 66.4392 107.853 65.7825 106.456C65.2043 105.23 64.5816 103.945 64.3942 103.601C64.0587 102.982 64.048 102.976 61.6104 102.976L61.6533 105.653C61.6854 107.692 61.7586 108.426 61.9655 108.731C62.1137 108.952 62.5758 109.234 62.9934 109.356C63.6429 109.547 63.7607 109.655 63.8107 110.114C63.841 110.408 63.7607 110.749 63.6322 110.869C63.4556 111.033 62.3207 111.078 55.008 111.006L54.9634 110.337C54.9205 109.687 54.9455 109.655 55.9002 109.222C56.7407 108.84 56.9084 108.681 57.0726 108.106C57.1975 107.667 57.2439 105.105 57.2064 100.656C57.1636 95.6563 57.0904 93.7702 56.9263 93.4739C56.8031 93.2545 56.3231 92.8922 55.8592 92.6709C55.3345 92.4229 54.9901 92.1338 54.9544 91.9126C54.9205 91.7163 54.9384 91.4557 54.9901 91.3326C55.0651 91.1631 56.1518 91.1095 64.0195 91.1095V91.1095ZM90.9647 91.1095L91.0503 91.511C91.0985 91.7323 91.2181 92.737 91.5 95.5707L91.0093 96.0346C90.6917 96.3344 90.3919 96.4647 90.1617 96.404C89.9654 96.3523 89.5032 95.8633 89.1356 95.3173C88.6092 94.5339 88.247 94.2181 87.4404 93.8308C86.5053 93.3847 86.2323 93.3401 82.3101 93.3401L82.2209 99.4965L84.4068 99.4608C86.5 99.4269 86.6124 99.4447 87.0764 99.8623C87.3458 100.107 87.5653 100.498 87.5707 100.746C87.576 100.992 87.46 101.454 87.3101 101.772C87.1602 102.091 86.9586 102.393 86.8605 102.441C86.7623 102.491 86.4001 102.41 86.0574 102.262C85.6256 102.079 84.9493 102.009 82.3101 102.084L82.253 103.511C82.2209 104.297 82.2405 105.683 82.2976 106.59C82.3654 107.707 82.485 108.328 82.667 108.508C82.8704 108.713 83.3808 108.776 84.8083 108.776C85.9183 108.776 87.0817 108.667 87.6635 108.508C88.3433 108.322 88.8501 108.035 89.3141 107.568C89.6817 107.196 90.2045 106.595 90.474 106.229C90.8773 105.681 91.0753 105.564 91.5892 105.564C92.0193 105.564 92.2513 105.662 92.3334 105.876C92.3994 106.049 92.353 106.67 92.2281 107.259C92.1032 107.848 91.8087 108.952 91.1431 111.095L83.6038 111.094C79.4568 111.092 75.9753 111.031 75.8647 110.96C75.7558 110.887 75.6148 110.648 75.5524 110.426C75.4756 110.153 75.5256 109.996 75.7076 109.936C75.8539 109.887 75.9753 109.727 75.9753 109.579C75.9753 109.427 76.1876 109.273 76.466 109.225C76.7355 109.177 77.1173 108.968 77.3136 108.76C77.658 108.394 77.6705 108.137 77.6705 101.097C77.6705 94.0932 77.6562 93.7934 77.3136 93.3276C77.1173 93.0617 76.6748 92.7477 76.3322 92.6299C75.8807 92.4764 75.6916 92.298 75.6523 91.9875C75.622 91.7502 75.6398 91.4557 75.6916 91.3326C75.7665 91.1595 77.476 91.1095 90.9647 91.1095V91.1095ZM59.6922 115.578C60.306 115.567 61.4302 115.683 62.1904 115.837C62.9506 115.99 64.1676 116.411 64.8938 116.774C65.8931 117.27 66.5213 117.757 67.4724 118.769C68.229 119.575 68.9267 120.533 69.2265 121.178C69.5013 121.766 69.8546 122.851 70.0134 123.587C70.2133 124.522 70.2704 125.384 70.199 126.442C70.1437 127.277 69.9385 128.481 69.7422 129.118C69.5459 129.757 68.9802 130.901 68.4859 131.661C67.9292 132.52 67.1993 133.353 66.5623 133.858C65.9984 134.306 65.0937 134.902 64.5548 135.18C64.0141 135.459 62.8899 135.826 62.0566 135.996C60.952 136.222 60.1044 136.278 58.9338 136.201C58.0505 136.144 56.7246 135.926 55.9894 135.717C55.2524 135.509 54.2514 135.123 53.7624 134.861C53.2735 134.598 52.342 133.861 51.6925 133.223C50.8627 132.407 50.3202 131.667 49.858 130.724C49.4976 129.989 49.0765 128.785 48.9212 128.048C48.7267 127.132 48.6696 126.26 48.7392 125.282C48.7963 124.497 48.989 123.372 49.1692 122.784C49.3495 122.195 49.7849 121.231 50.1364 120.642C50.488 120.053 51.2463 119.131 51.8209 118.59C52.3955 118.049 53.3074 117.353 53.8481 117.043C54.387 116.734 55.3113 116.342 55.9002 116.174C56.4891 116.004 57.3313 115.806 57.7739 115.733C58.2146 115.66 59.0783 115.589 59.6922 115.578V115.578ZM-3.37217 115.922C-3.12056 115.915 -3.02956 116.069 -2.98495 116.583C-2.95283 116.952 -2.87966 117.473 -2.82256 117.743C-2.74583 118.107 -2.83505 118.372 -3.16518 118.769C-3.47745 119.143 -3.61129 119.518 -3.61129 120.018C-3.61129 120.41 -3.47032 121.021 -3.29901 121.374C-3.09915 121.786 -2.69765 122.175 -2.18373 122.459C-1.74297 122.701 -0.699062 123.182 0.136062 123.526C0.969401 123.872 2.12573 124.407 2.70567 124.718C3.28562 125.028 4.12967 125.683 4.58292 126.174C5.05937 126.69 5.53938 127.445 5.71783 127.958C5.88914 128.449 6.02832 129.333 6.02832 129.921C6.02832 130.51 5.91055 131.394 5.76601 131.884C5.62325 132.375 5.20034 133.133 4.82739 133.569C4.45622 134.002 3.72995 134.625 3.21424 134.952C2.69853 135.277 2.23636 135.542 2.18818 135.542C2.13822 135.542 2.09896 135.362 2.10074 135.141C2.10074 134.921 1.98119 134.559 1.83308 134.338C1.68497 134.118 1.46369 133.94 1.34057 133.945C1.21744 133.949 0.996167 133.826 0.849842 133.672C0.610725 133.422 0.623217 133.349 0.960478 132.994C1.16926 132.777 1.43157 132.418 1.54043 132.197C1.65106 131.977 1.7385 131.335 1.73671 130.769C1.73136 129.809 1.68497 129.702 1.02293 129.074C0.632139 128.706 -0.067366 128.215 -0.533108 127.983C-0.99885 127.751 -1.70192 127.459 -2.0945 127.336C-2.48708 127.211 -3.41143 126.824 -4.14662 126.476C-4.8836 126.128 -5.87576 125.476 -6.35221 125.028C-6.83044 124.579 -7.38184 123.89 -7.57813 123.497C-7.79048 123.076 -7.97249 122.273 -8.02245 121.534C-8.09026 120.562 -8.02959 120.068 -7.74765 119.304C-7.48355 118.588 -7.12844 118.09 -6.43429 117.464C-5.91323 116.991 -5.08346 116.454 -4.59274 116.269C-4.10201 116.083 -3.5524 115.928 -3.37217 115.922V115.922ZM1.96512 115.917C2.1864 115.919 2.84843 116.044 3.4373 116.195C4.02617 116.347 4.60968 116.608 4.7346 116.772C4.88092 116.97 4.95944 117.693 4.95765 118.858C4.95765 120.15 4.8827 120.753 4.6882 121.044C4.51868 121.297 4.23673 121.447 3.92802 121.449C3.52117 121.451 3.33023 121.276 2.81274 120.432C2.46834 119.87 1.92765 119.147 1.60823 118.822C1.05327 118.258 1.03899 118.214 1.29417 117.743C1.4405 117.473 1.56184 116.952 1.56184 116.583C1.56362 116.008 1.61894 115.915 1.96512 115.917ZM19.0513 116.092L19.3278 116.761C19.4813 117.13 20.0934 118.715 20.6912 120.285C21.289 121.856 22.3596 124.666 23.0698 126.531C23.7801 128.396 24.6544 130.644 25.0149 131.527C25.3736 132.411 25.8054 133.285 25.9731 133.469C26.1409 133.654 26.6191 133.954 27.0367 134.138C27.6595 134.413 27.7969 134.559 27.8022 134.962C27.8076 135.234 27.7076 135.553 27.5792 135.673C27.4078 135.837 26.2587 135.881 18.7836 135.81V135.116C18.7836 134.673 18.8799 134.377 19.0513 134.297C19.1976 134.229 19.5598 134.054 19.8543 133.91C20.3575 133.663 20.3878 133.588 20.3646 132.677C20.3521 132.123 20.179 131.342 19.5866 130.011H17.6237V127.869H18.159C18.4677 127.869 18.6944 127.775 18.6962 127.646C18.6962 127.525 18.1947 126.076 17.5809 124.429C16.967 122.782 16.4031 121.436 16.33 121.44C16.2568 121.443 16.1176 121.627 16.023 121.847C15.9285 122.068 15.4163 123.372 14.8863 124.746C13.937 127.205 13.9227 127.268 14.144 130.014L13.6979 130.016C13.4516 130.016 13.159 130.075 13.0448 130.148C12.9306 130.219 12.6683 130.701 12.4648 131.215C12.2596 131.731 12.0883 132.454 12.083 132.821C12.0794 133.191 12.1793 133.59 12.306 133.71C12.4345 133.831 12.7789 133.997 13.0733 134.079C13.5195 134.204 13.6158 134.329 13.6569 134.841C13.6836 135.178 13.6033 135.558 13.4784 135.685C13.3107 135.856 12.4987 135.914 10.3521 135.908C8.75675 135.903 7.29171 135.819 7.09543 135.721C6.87237 135.61 6.73497 135.359 6.72961 135.052C6.72604 134.782 6.82597 134.472 6.95267 134.359C7.08115 134.249 7.38451 134.099 7.63076 134.027C7.87523 133.954 8.22677 133.763 8.40878 133.603C8.5908 133.444 8.9227 132.951 9.14755 132.509C9.37239 132.068 10.7286 128.795 12.1615 125.237C13.5962 121.681 14.7721 118.549 14.7757 118.278C14.7811 118.008 14.6561 117.668 14.5009 117.519C14.3439 117.373 14.2065 117.045 14.1958 116.791C14.1833 116.538 14.2404 116.277 14.3225 116.211C14.4045 116.145 15.502 116.092 19.0513 116.092V116.092ZM34.7045 116.092C37.9682 116.09 40.6306 116.17 41.2677 116.288C41.8566 116.397 42.6988 116.668 43.1414 116.891C43.5821 117.113 44.1835 117.607 44.4743 117.987C44.7652 118.369 45.1025 118.961 45.2238 119.304C45.3452 119.648 45.4469 120.291 45.4504 120.731C45.4522 121.174 45.3559 121.85 45.2345 122.234C45.1132 122.619 44.726 123.262 44.3726 123.662C44.0211 124.063 43.3948 124.55 42.9843 124.746C42.5739 124.943 42.2402 125.164 42.2438 125.237C42.2456 125.312 42.5097 125.41 42.8291 125.458C43.1485 125.505 43.7695 125.771 44.212 126.047C44.6528 126.324 45.2774 126.947 45.5968 127.434C45.9162 127.919 46.2588 128.717 46.3587 129.208C46.4819 129.818 46.4801 130.41 46.3498 131.081C46.2463 131.622 45.9751 132.384 45.7449 132.777C45.5165 133.169 45.0365 133.753 44.6813 134.07C44.3245 134.39 43.7124 134.811 43.3198 135.007C42.9272 135.203 42.1046 135.484 41.4907 135.63C40.6289 135.833 39.1031 135.896 34.799 135.898C29.9989 135.899 29.2101 135.862 29.1334 135.632C29.0834 135.485 29.0442 135.164 29.0442 134.918C29.0442 134.561 29.2048 134.4 29.8472 134.115C30.4557 133.845 30.718 133.596 30.9321 133.089C31.1766 132.509 31.2069 131.502 31.1552 125.512C31.1052 119.664 31.0553 118.562 30.8286 118.335C30.6805 118.189 30.2398 117.957 29.8472 117.821C29.2601 117.619 29.1227 117.484 29.0799 117.057C29.0495 116.772 29.0674 116.438 29.1191 116.315C29.1923 116.144 30.4825 116.092 34.7045 116.092ZM78.3772 116.129C84.0856 116.185 84.3069 116.201 85.3437 116.609C86.0307 116.881 86.7052 117.327 87.228 117.855C87.7741 118.41 88.1488 119.002 88.3683 119.661C88.6039 120.373 88.6717 120.987 88.6146 121.891C88.5539 122.855 88.4111 123.367 87.9918 124.122C87.6849 124.675 87.1442 125.316 86.7516 125.589C86.3697 125.855 85.7166 126.236 85.2991 126.436C84.8815 126.636 84.5371 126.859 84.5317 126.932C84.5282 127.007 84.6567 127.188 84.819 127.334C84.9796 127.482 85.7666 128.679 86.566 129.998C87.3654 131.315 88.3094 132.719 88.661 133.121C89.0678 133.581 89.5746 133.929 90.0439 134.07C90.5578 134.225 90.8184 134.416 90.8933 134.695C90.9522 134.916 90.9129 135.278 90.8041 135.498C90.6399 135.831 90.4186 135.915 89.4925 135.996C88.8787 136.049 87.8544 136.022 87.2173 135.935C86.5785 135.848 85.713 135.583 85.2937 135.346C84.8743 135.111 84.3515 134.681 84.1338 134.391C83.9161 134.102 83.0524 132.496 80.6952 127.78L78.652 127.691L78.6538 130.323C78.6555 132.052 78.7323 133.107 78.8768 133.394C79.0017 133.642 79.4086 133.947 79.8119 134.099C80.2044 134.245 80.5845 134.449 80.6559 134.552C80.7273 134.656 80.7344 134.9 80.672 135.096C80.6095 135.293 80.4507 135.555 80.3186 135.676C80.1384 135.844 79.0945 135.889 72.1887 135.81L72.1637 135.061C72.1387 134.333 72.1619 134.3 72.8971 134.035C73.4092 133.847 73.7429 133.585 73.9232 133.223C74.1498 132.769 74.1837 131.613 74.1462 125.665C74.1087 119.725 74.0606 118.597 73.8339 118.339C73.6858 118.169 73.2647 117.957 72.8971 117.866C72.4671 117.759 72.1476 117.541 72.0049 117.255C71.8122 116.875 71.83 116.763 72.1316 116.442C72.4742 116.078 72.5955 116.072 78.3772 116.129V116.129ZM-5.42072 131.8C-5.35827 131.802 -5.06562 132.07 -4.77118 132.393C-4.47675 132.718 -4.09844 133.057 -3.93071 133.148C-3.66839 133.29 -3.64341 133.489 -3.75226 134.607C-3.8736 135.839 -3.90215 135.903 -4.32507 135.898C-4.57132 135.894 -5.33328 135.692 -6.0203 135.448C-6.70731 135.202 -7.44965 134.882 -7.67092 134.738C-7.98855 134.527 -8.07242 134.304 -8.07242 133.669C-8.07242 132.896 -8.05279 132.866 -7.53708 132.866C-7.24265 132.866 -6.78048 132.755 -6.51102 132.619C-6.24157 132.484 -5.91145 132.243 -5.77761 132.084C-5.64378 131.925 -5.48318 131.797 -5.42072 131.8Z" fill="#6B391F"/>
<path d="M39.0032 37.1263C38.9854 36.9764 39.1656 36.7801 39.4047 36.6909C39.6438 36.6016 40.2809 36.5231 40.8198 36.5124C41.6995 36.4981 41.8244 36.5427 42.0243 36.9478C42.167 37.2351 42.4418 37.4314 43.318 37.5777V38.8268C43.318 39.5139 43.2573 40.1134 43.1842 40.158C43.111 40.2027 42.449 40.1152 41.712 39.9618C40.8019 39.7726 39.7009 39.7048 36.1677 39.8083L36.2694 37.667L37.2509 37.6206C37.7898 37.5956 38.4126 37.5349 38.6338 37.4867C38.8587 37.4368 39.0211 37.2797 39.0032 37.1263Z" fill="#6C3A25"/>
<path d="M49.7349 42.1281C49.7385 41.7355 49.7974 40.9111 49.867 40.2954C49.9829 39.2747 50.0258 39.1855 50.3595 39.2872C50.5593 39.3497 51.3659 39.7458 52.1511 40.167C52.9362 40.5899 54.0604 41.2894 54.6493 41.7212C55.2382 42.1548 56.2357 42.9846 56.8656 43.5681C57.4955 44.1499 58.4805 45.208 59.0515 45.92C59.8171 46.8729 60.0437 47.2727 59.9063 47.4368C59.7992 47.5635 59.7421 48.288 59.7724 49.1196C59.8188 50.4329 59.8742 50.631 60.3114 51.0825C60.6736 51.4554 60.8021 51.7695 60.8074 52.2995C60.811 52.692 60.9323 53.1346 61.0751 53.2809C61.2196 53.429 61.457 53.9911 61.6051 54.53C61.7675 55.126 61.871 56.2824 61.871 57.4744C61.871 58.8216 61.9406 59.5086 62.0958 59.6639C62.2796 59.8459 61.5212 59.8887 54.0247 59.8834L54.0033 58.6789C53.9926 58.0168 53.998 56.9926 54.0158 56.4037C54.0337 55.8148 53.9605 54.7709 53.8516 54.0839C53.7428 53.3969 53.6161 52.7152 53.5679 52.5671C53.5162 52.4083 53.6286 52.2441 53.8427 52.1656C54.0408 52.0925 54.3227 51.7516 54.4708 51.4072C54.6636 50.9593 54.6885 50.6827 54.5601 50.4258C54.4619 50.2295 54.3852 49.8887 54.3888 49.6674C54.3941 49.4461 54.2728 49.1463 54.1193 48.9982C53.9658 48.8519 53.7945 48.5307 53.7374 48.2844C53.6821 48.04 53.3609 47.5368 53.0272 47.1692C52.6917 46.8016 52.358 46.2502 52.2849 45.9432C52.2117 45.6381 52.0476 45.2955 51.9209 45.1848C51.7924 45.0742 51.6907 44.8636 51.6925 44.7155C51.6942 44.5692 51.5568 44.3051 51.3873 44.1302C51.2196 43.9554 50.9805 43.8144 50.8573 43.818C50.7342 43.8215 50.4308 43.602 50.1828 43.3326C49.8527 42.9739 49.7313 42.6491 49.7349 42.1281Z" fill="#6C3A25"/>
<path d="M20.8518 47.2138C21.3585 46.4786 22.1723 45.4579 22.6612 44.9475L23.5481 44.0214L25.4735 45.9647L24.3832 47.4368C23.7836 48.247 23.0805 49.2891 22.8218 49.7548C22.563 50.2188 22.2311 50.5971 22.083 50.5953C21.9367 50.5917 21.3942 50.192 20.8785 49.7049C20.3628 49.2177 19.9399 48.7591 19.9363 48.6859C19.9346 48.6128 20.3468 47.9507 20.8518 47.2138Z" fill="#6C3A25"/>
<path d="M17.1776 56.0004C17.3257 55.2402 17.5702 54.2374 17.7236 53.7698L18.0038 52.9222H19.5081C20.3361 52.9222 21.0534 53.0025 21.1034 53.1007C21.1515 53.1988 20.9624 53.9822 20.6822 54.8405C20.4021 55.7006 20.1201 56.6232 19.9435 57.3834H23.3339V59.8816L20.345 59.8852C18.1679 59.8869 17.2953 59.8263 17.1294 59.6621C16.9991 59.5318 16.9046 59.0036 16.9063 58.4094C16.9081 57.8455 17.0295 56.7624 17.1776 56.0004Z" fill="#6C3A25"/>
<path d="M38.3215 59.8816V58.6325V57.3834H40.106C41.8387 57.3834 41.8905 57.3959 41.8887 57.7849C41.8887 58.0061 41.9493 58.57 42.1581 59.887L38.3215 59.8816Z" fill="#6C3A25"/>
<path d="M21.5673 64.655C21.2782 64.1411 21.1908 63.6789 21.1908 62.6475V61.3092H33.682V61.7553C33.682 62.0015 33.8033 62.4423 33.9496 62.7367C34.0977 63.0312 34.3583 63.2756 34.5296 63.2774C34.7009 63.2792 34.9846 63.4202 35.1613 63.5897C35.3362 63.7592 35.4736 64.1375 35.4664 64.432C35.4575 64.8317 35.2755 65.1154 34.7473 65.5472C34.1245 66.0594 34.0389 66.2182 34.0424 67.644L32.39 67.7796C31.4817 67.8527 29.1512 67.9134 23.689 67.9116V67.2871C23.689 66.9445 23.5695 66.4627 23.4214 66.2164C23.259 65.947 22.9967 65.7739 22.7522 65.7792C22.5309 65.7828 22.2597 65.6829 22.1473 65.5562C22.0349 65.4295 21.7743 65.0244 21.5673 64.655Z" fill="#6C3A25"/>
<path d="M53.3627 62.403C53.5376 62.2442 53.6768 61.9319 53.675 61.7107C53.6678 61.3199 53.7124 61.3092 57.5936 61.3092V62.0229C57.5936 62.4155 57.7471 62.999 57.9345 63.3167C58.1986 63.7664 58.2896 64.3285 58.3966 67.6904L57.2367 67.801C56.5997 67.8599 54.8117 67.9098 53.2663 67.9116C50.5754 67.9116 50.4558 67.8974 50.4558 67.5547C50.4558 67.3585 50.2952 66.957 50.0989 66.6625C49.8848 66.3413 49.5832 66.1254 49.3405 66.12C49.1193 66.1147 48.6589 65.9737 48.3145 65.806C47.7756 65.5437 47.6828 65.4045 47.6346 64.7888C47.5936 64.2589 47.6632 64.018 47.9023 63.8502C48.0807 63.7253 48.6874 63.6254 49.2513 63.6272C49.9651 63.6289 50.454 63.5219 50.8573 63.2756C51.1767 63.0811 51.7995 62.8706 52.2403 62.8081C52.6828 62.7456 53.186 62.5636 53.3627 62.403Z" fill="#6C3A25"/>
<path d="M33.4643 43.4218C34.1727 42.9561 35.0132 42.469 35.3326 42.3423C35.7216 42.1852 36.4728 42.1335 37.6078 42.1817C38.864 42.237 39.3958 42.3333 39.6599 42.5582C39.8562 42.7241 40.4183 42.9597 40.909 43.0792C41.4854 43.2202 41.9422 43.47 42.2027 43.7841C42.4222 44.0518 42.6007 44.3908 42.6007 44.5371C42.5989 44.6835 42.6738 44.8851 42.7666 44.9832C42.8594 45.0814 43.0164 45.7648 43.1164 46.5C43.2698 47.6207 43.3805 47.9097 43.7998 48.2738C44.0746 48.5129 44.5582 49.2356 44.8758 49.8798C45.1935 50.524 45.4522 51.1307 45.4504 51.2288C45.4486 51.327 45.611 51.6285 45.8109 51.898C46.0893 52.2763 46.1481 52.5422 46.0607 53.0579C45.9983 53.4255 45.8591 53.8413 45.7484 53.9787C45.6378 54.1179 45.4683 54.3927 45.3701 54.589C45.2434 54.8441 44.8598 55.0154 44.0318 55.1867C43.393 55.317 42.7952 55.5044 42.7024 55.6025C42.5953 55.7149 39.3422 55.7792 33.8247 55.7792C25.618 55.7792 25.1219 55.7613 25.2005 55.4669C25.2469 55.2956 25.4556 54.5925 25.6644 53.9055C25.875 53.2185 26.4371 51.8944 26.9153 50.9612C27.3953 50.0279 28.2983 48.5843 28.9264 47.7491C29.5527 46.914 30.5395 45.7898 31.1195 45.2509C31.6994 44.712 32.754 43.8876 33.4643 43.4218Z" fill="#DAA635"/>
</g>
</g>
</svg>
