<svg width="36" height="37" viewBox="0 0 36 37" fill="none" xmlns="http://www.w3.org/2000/svg">
<path d="M10.809 36.03C9.81816 36.03 8.97026 35.6775 8.26527 34.9725C7.56028 34.2675 7.20719 33.419 7.20599 32.427C7.20479 31.4349 7.55788 30.587 8.26527 29.8832C8.97266 29.1795 9.82056 28.8264 10.809 28.824C11.7974 28.8216 12.6459 29.1747 13.3545 29.8832C14.0631 30.5918 14.4156 31.4397 14.412 32.427C14.4084 33.4142 14.0559 34.2627 13.3545 34.9725C12.6531 35.6823 11.8046 36.0348 10.809 36.03ZM28.824 36.03C27.8331 36.03 26.9852 35.6775 26.2802 34.9725C25.5753 34.2675 25.2222 33.419 25.221 32.427C25.2198 31.4349 25.5729 30.587 26.2802 29.8832C26.9876 29.1795 27.8355 28.8264 28.824 28.824C29.8124 28.8216 30.6609 29.1747 31.3695 29.8832C32.0781 30.5918 32.4306 31.4397 32.427 32.427C32.4234 33.4142 32.0709 34.2627 31.3695 34.9725C30.6681 35.6823 29.8196 36.0348 28.824 36.03ZM12.4562 7.20599C10.9835 7.20599 10.0159 8.74378 10.6531 10.0715L13.0567 15.0789C13.3896 15.7724 14.0906 16.2135 14.8598 16.2135H25.0292C25.7586 16.2135 26.4302 15.8164 26.7817 15.1773L29.5358 10.1698C30.2689 8.83692 29.3046 7.20599 27.7834 7.20599H12.4562ZM7.02389 2.46111C7.35518 3.15855 8.05833 3.603 8.83045 3.603H34.1384C34.829 3.603 35.3544 3.91105 35.7147 4.52716C36.075 5.14328 36.09 5.76599 35.7597 6.39532L29.3644 17.9249C29.0341 18.5254 28.5916 18.9908 28.0367 19.3211C27.4818 19.6513 26.8735 19.8165 26.2118 19.8165H13.8558C13.1988 19.8165 12.5939 20.1741 12.2773 20.7498C11.617 21.9504 12.4856 23.4195 13.8558 23.4195H30.6255C31.6204 23.4195 32.427 24.226 32.427 25.221C32.427 26.2159 31.6204 27.0225 30.6255 27.0225H10.809C9.45786 27.0225 8.43701 26.4298 7.74644 25.2444C7.05587 24.059 7.02584 22.8802 7.65636 21.708L9.59444 18.1908C9.90461 17.6279 9.92537 16.9502 9.65024 16.3694L4.14481 4.74682C3.81394 4.04833 3.11023 3.603 2.33733 3.603H1.8015C0.806557 3.603 0 2.79644 0 1.8015C0 0.806558 0.806558 0 1.8015 0H4.59071C5.36283 0 6.06598 0.44445 6.39726 1.14189L7.02389 2.46111Z" fill="white"/>
</svg>
